<?xml version="1.0" standalone="no"?>
<!DOCTYPE svg PUBLIC "-//W3C//DTD SVG 20010904//EN"
 "http://www.w3.org/TR/2001/REC-SVG-20010904/DTD/svg10.dtd">
<svg version="1.0" xmlns="http://www.w3.org/2000/svg"
 width="856.000000pt" height="291.000000pt" viewBox="0 0 856.000000 291.000000"
 preserveAspectRatio="xMidYMid meet">
<metadata>
Created by potrace 1.16, written by Peter Selinger 2001-2019
</metadata>
<g transform="translate(0.000000,291.000000) scale(0.100000,-0.100000)"
fill="#000000" stroke="none">
<path d="M2937 2583 c-2 -2 -28 -5 -58 -8 -30 -2 -85 -11 -124 -20 -38 -9 -86
-20 -105 -24 -49 -11 -207 -80 -221 -97 -6 -8 -17 -14 -24 -14 -6 0 -22 -9
-35 -20 -13 -11 -27 -20 -32 -20 -5 0 -14 -4 -21 -10 -7 -5 -48 -39 -92 -74
-172 -138 -292 -291 -390 -501 -57 -121 -63 -151 -41 -210 33 -84 105 -117
177 -79 24 12 41 38 80 122 28 58 75 145 106 192 67 101 198 233 297 299 78
52 220 120 306 145 30 9 69 21 85 26 17 5 46 9 65 8 19 -1 107 -2 195 -3 210
-3 240 -8 396 -66 116 -44 169 -36 204 31 20 38 19 76 -4 126 -21 47 -56 75
-121 97 -25 9 -64 23 -88 32 -42 15 -188 48 -270 60 -46 7 -280 14 -285 8z
m706 -193 c14 -11 29 -29 32 -40 10 -31 -13 -87 -38 -94 -62 -16 -95 6 -104
72 -9 71 54 106 110 62z"/>
<path d="M2989 1642 c-8 -3 -32 -13 -54 -22 -22 -10 -57 -25 -78 -34 -21 -8
-45 -22 -53 -31 -9 -8 -31 -27 -51 -42 -73 -56 -169 -225 -174 -307 -4 -53 21
-101 65 -130 46 -30 69 -32 120 -11 31 13 42 28 76 100 87 182 244 248 426
180 86 -33 121 -32 163 3 61 51 61 152 0 209 -32 30 -121 68 -191 82 -53 11
-215 13 -249 3z m408 -144 c35 -40 42 -59 30 -92 -6 -17 -15 -34 -21 -38 -18
-12 -71 -9 -87 5 -46 37 -44 118 3 137 37 14 53 12 75 -12z"/>
</g>
</svg>
